<svg width="98" height="98" viewBox="0 0 98 98" fill="none" xmlns="http://www.w3.org/2000/svg">
<circle cx="49.2148" cy="49.2166" r="47.25" stroke="#460013" stroke-width="3"/>
<path d="M80.2148 49.2166C80.2148 62.4237 76.6433 74.3126 70.9477 82.856C65.2452 91.4098 57.5319 96.4666 49.2148 96.4666C40.8978 96.4666 33.1845 91.4098 27.4819 82.856C21.7864 74.3126 18.2148 62.4237 18.2148 49.2166C18.2148 36.0094 21.7864 24.1205 27.4819 15.5771C33.1845 7.02331 40.8978 1.96655 49.2148 1.96655C57.5319 1.96655 65.2452 7.02331 70.9477 15.5771C76.6433 24.1205 80.2148 36.0094 80.2148 49.2166Z" stroke="#460013" stroke-width="3"/>
<path d="M63.9648 49.2166C63.9648 62.5621 62.1595 74.582 59.2823 83.2137C57.8411 87.5373 56.158 90.9281 54.362 93.2071C52.5526 95.503 50.8019 96.4666 49.2148 96.4666C47.6278 96.4666 45.8771 95.503 44.0677 93.2071C42.2717 90.9281 40.5886 87.5373 39.1474 83.2137C36.2702 74.582 34.4648 62.5621 34.4648 49.2166C34.4648 35.871 36.2702 23.8511 39.1474 15.2194C40.5886 10.8958 42.2717 7.50504 44.0677 5.22603C45.8771 2.93011 47.6278 1.96655 49.2148 1.96655C50.8019 1.96655 52.5526 2.93011 54.362 5.22603C56.158 7.50504 57.8411 10.8958 59.2823 15.2194C62.1595 23.8511 63.9648 35.871 63.9648 49.2166Z" stroke="#460013" stroke-width="3"/>
<path d="M49.2148 18.2166C62.422 18.2166 74.3109 21.7881 82.8542 27.4837C91.4081 33.1862 96.4648 40.8995 96.4648 49.2166C96.4648 57.5336 91.4081 65.2469 82.8542 70.9494C74.3109 76.645 62.422 80.2166 49.2148 80.2166C36.0077 80.2166 24.1188 76.645 15.5754 70.9494C7.0216 65.2469 1.96484 57.5336 1.96484 49.2166C1.96484 40.8995 7.0216 33.1862 15.5754 27.4837C24.1188 21.7881 36.0077 18.2166 49.2148 18.2166Z" stroke="#460013" stroke-width="3"/>
<path d="M49.2148 34.4666C62.5604 34.4666 74.5803 36.2719 83.212 39.1491C87.5356 40.5903 90.9264 42.2734 93.2054 44.0694C95.5013 45.8788 96.4648 47.6295 96.4648 49.2166C96.4648 50.8036 95.5013 52.5543 93.2054 54.3637C90.9264 56.1597 87.5356 57.8428 83.212 59.284C74.5803 62.1612 62.5604 63.9666 49.2148 63.9666C35.8693 63.9666 23.8494 62.1612 15.2177 59.284C10.8941 57.8428 7.50333 56.1597 5.22432 54.3637C2.9284 52.5543 1.96484 50.8036 1.96484 49.2166C1.96484 47.6295 2.9284 45.8788 5.22432 44.0694C7.50333 42.2734 10.8941 40.5903 15.2177 39.1491C23.8494 36.2719 35.8693 34.4666 49.2148 34.4666Z" stroke="#460013" stroke-width="3"/>
</svg>
